<?xml version="1.0" standalone="no"?>
<!DOCTYPE svg PUBLIC "-//W3C//DTD SVG 20010904//EN"
 "http://www.w3.org/TR/2001/REC-SVG-20010904/DTD/svg10.dtd">
<svg version="1.0" xmlns="http://www.w3.org/2000/svg"
 width="261.000000pt" height="193.000000pt" viewBox="0 0 261.000000 193.000000"
 preserveAspectRatio="xMidYMid meet">
<metadata>
Created by potrace 1.16, written by Peter Selinger 2001-2019
</metadata>
<g transform="translate(0.000000,193.000000) scale(0.100000,-0.100000)"
fill="#000000" stroke="none">
<path d="M350 1381 c-145 -30 -243 -150 -243 -296 0 -119 59 -212 168 -266 55
-27 75 -31 140 -31 61 0 85 5 130 27 93 45 145 131 145 242 l0 53 -140 0 -140
0 0 -40 0 -40 101 0 102 0 -7 -32 c-15 -77 -83 -128 -178 -135 -55 -4 -70 -1
-118 24 -108 57 -152 190 -99 300 54 111 194 156 304 97 l48 -25 26 25 c25 25
25 26 6 41 -59 47 -169 72 -245 56z"/>
<path d="M845 1152 c-84 -40 -127 -126 -106 -216 22 -97 91 -150 192 -150 67
1 108 22 152 77 64 79 42 217 -44 274 -52 34 -139 41 -194 15z m135 -67 c42
-22 63 -68 57 -123 -12 -105 -139 -143 -199 -59 -73 102 33 238 142 182z"/>
<path d="M1692 1149 c-76 -38 -116 -128 -98 -224 8 -41 55 -99 99 -122 45 -23
123 -20 158 6 l29 22 0 -36 c0 -43 -23 -90 -49 -105 -40 -21 -97 -12 -131 20
-35 33 -45 35 -77 17 l-23 -13 30 -36 c73 -88 212 -93 282 -10 38 45 48 111
48 312 l0 180 -40 0 c-29 0 -40 -4 -40 -15 0 -12 -6 -12 -37 5 -49 26 -97 25
-151 -1z m137 -64 c30 -15 61 -69 61 -104 0 -40 -28 -90 -62 -111 -40 -24 -50
-25 -94 -4 -42 20 -67 64 -66 115 1 49 16 75 55 99 38 24 68 25 106 5z"/>
<path d="M2245 1156 c-37 -17 -80 -62 -94 -99 -20 -51 -13 -136 13 -181 61
-105 221 -122 304 -33 l23 24 -32 21 -33 20 -29 -24 c-41 -34 -108 -34 -144 2
-14 14 -22 29 -17 33 5 4 63 30 129 56 66 27 121 50 123 51 2 1 -3 17 -11 35
-38 90 -146 133 -232 95z"/>
</g>
</svg>
